{
  "accessors": [
    {
      "bufferView": 2,
      "componentType": 5126,
      "count": 25604,
      "max": [
        0.6110415458679199,
        1.2808938026428223,
        0.6424932479858398
      ],
      "min": [
        -0.6175334453582764,
        -1.0787651538848877,
        -0.6387502551078796
      ],
      "type": "VEC3"
    },
    {
      "bufferView": 2,
      "byteOffset": 307248,
      "componentType": 5126,
      "count": 25604,
      "max": [
        0.9999727010726929,
        0.9995629787445068,
        0.9999241232872009
      ],
      "min": [
        -0.9997691512107849,
        -0.9996539354324341,
        -0.9999573230743408
      ],
      "type": "VEC3"
    },
    {
      "bufferView": 1,
      "componentType": 5126,
      "count": 25604,
      "max": [
        1.000000238418579,
        1.000000238418579
      ],
      "min": [
        0.0,
        0.0
      ],
      "type": "VEC2"
    },
    {
      "bufferView": 0,
      "componentType": 5125,
      "count": 148608,
      "type": "SCALAR"
    },
    {
      "bufferView": 2,
      "byteOffset": 614496,
      "componentType": 5126,
      "count": 2107,
      "max": [
        0.30633050203323364,
        0.46343135833740234,
        0.04139723628759384
      ],
      "min": [
        -0.16133618354797363,
        -0.4631376266479492,
        -0.08938800543546677
      ],
      "type": "VEC3"
    },
    {
      "bufferView": 2,
      "byteOffset": 639780,
      "componentType": 5126,
      "count": 2107,
      "max": [
        1.0,
        0.9696379899978638,
        0.9999682903289795
      ],
      "min": [
        -1.0,
        -0.9093513488769531,
        -0.9999682903289795
      ],
      "type": "VEC3"
    },
    {
      "bufferView": 1,
      "byteOffset": 204832,
      "componentType": 5126,
      "count": 2107,
      "max": [
        1.0000001192092896,
        1.0000001192092896
      ],
      "min": [
        0.0,
        0.0
      ],
      "type": "VEC2"
    },
    {
      "bufferView": 0,
      "byteOffset": 594432,
      "componentType": 5125,
      "count": 10656,
      "type": "SCALAR"
    },
    {
      "bufferView": 2,
      "byteOffset": 665064,
      "componentType": 5126,
      "count": 2101,
      "max": [
        0.6349964141845703,
        0.6507228016853333,
        0.014675896614789963
      ],
      "min": [
        -0.14385724067687988,
        -0.16871924698352814,
        -0.09477514028549194
      ],
      "type": "VEC3"
    },
    {
      "bufferView": 2,
      "byteOffset": 690276,
      "componentType": 5126,
      "count": 2101,
      "max": [
        1.0,
        0.9458784461021423,
        0.9999979734420776
      ],
      "min": [
        -0.9999149441719055,
        -0.9754539132118225,
        -0.9999971389770508
      ],
      "type": "VEC3"
    },
    {
      "bufferView": 1,
      "byteOffset": 221688,
      "componentType": 5126,
      "count": 2101,
      "max": [
        1.0000001192092896,
        1.0000001192092896
      ],
      "min": [
        0.0,
        0.0
      ],
      "type": "VEC2"
    },
    {
      "bufferView": 0,
      "byteOffset": 637056,
      "componentType": 5125,
      "count": 10656,
      "type": "SCALAR"
    },
    {
      "bufferView": 2,
      "byteOffset": 715488,
      "componentType": 5126,
      "count": 2105,
      "max": [
        0.7337137460708618,
        0.8205678462982178,
        0.08940402418375015
      ],
      "min": [
        0.029066679999232292,
        -0.1306551843881607,
        -0.01040390320122242
      ],
      "type": "VEC3"
    },
    {
      "bufferView": 2,
      "byteOffset": 740748,
      "componentType": 5126,
      "count": 2105,
      "max": [
        1.0,
        0.9999629855155945,
        0.9997156262397766
      ],
      "min": [
        -0.9998235702514648,
        -0.9992851614952087,
        -0.9999963045120239
      ],
      "type": "VEC3"
    },
    {
      "bufferView": 1,
      "byteOffset": 238496,
      "componentType": 5126,
      "count": 2105,
      "max": [
        1.0000001192092896,
        1.0000001192092896
      ],
      "min": [
        0.0,
        0.0
      ],
      "type": "VEC2"
    },
    {
      "bufferView": 0,
      "byteOffset": 679680,
      "componentType": 5125,
      "count": 10656,
      "type": "SCALAR"
    }
  ],
  "asset": {
    "extras": {
      "author": "tkkjee ​🥀 (https://sketchfab.com/tkkjee)",
      "license": "CC-BY-4.0 (http://creativecommons.org/licenses/by/4.0/)",
      "source": "https://sketchfab.com/3d-models/abstract-blot-05aacf10d67d4bc6bcab0d6bfffca8bd",
      "title": "Abstract blot"
    },
    "generator": "Sketchfab-13.74.0",
    "version": "2.0"
  },
  "bufferViews": [
    {
      "buffer": 0,
      "byteLength": 722304,
      "name": "floatBufferViews",
      "target": 34963
    },
    {
      "buffer": 0,
      "byteLength": 255336,
      "byteOffset": 722304,
      "byteStride": 8,
      "name": "floatBufferViews",
      "target": 34962
    },
    {
      "buffer": 0,
      "byteLength": 766008,
      "byteOffset": 977640,
      "byteStride": 12,
      "name": "floatBufferViews",
      "target": 34962
    }
  ],
  "buffers": [
    {
      "byteLength": 1743648,
      "uri": "scene.bin"
    }
  ],
  "extensionsUsed": [
    "KHR_materials_clearcoat"
  ],
  "materials": [
    {
      "doubleSided": true,
      "emissiveFactor": [
        0.9600029257,
        0.0064301571965141415,
        0.0
      ],
      "extensions": {
        "KHR_materials_clearcoat": {
          "clearcoatFactor": 1.0,
          "clearcoatRoughnessFactor": 0.1203813193
        }
      },
      "name": "Material",
      "pbrMetallicRoughness": {
        "baseColorFactor": [
          1.0,
          0.0,
          0.0055215,
          1.0
        ],
        "metallicFactor": 0.0,
        "roughnessFactor": 0.254476966
      }
    },
    {
      "doubleSided": true,
      "extensions": {
        "KHR_materials_clearcoat": {
          "clearcoatFactor": 1.0,
          "clearcoatRoughnessFactor": 0.2118101693
        }
      },
      "name": "Material.001",
      "pbrMetallicRoughness": {
        "baseColorFactor": [
          0.0651879173,
          0.0651879173,
          0.0651879173,
          1.0
        ],
        "roughnessFactor": 0.0350477259
      }
    }
  ],
  "meshes": [
    {
      "name": "Object_0",
      "primitives": [
        {
          "attributes": {
            "NORMAL": 1,
            "POSITION": 0,
            "TEXCOORD_0": 2
          },
          "indices": 3,
          "material": 0,
          "mode": 4
        }
      ]
    },
    {
      "name": "Object_1",
      "primitives": [
        {
          "attributes": {
            "NORMAL": 5,
            "POSITION": 4,
            "TEXCOORD_0": 6
          },
          "indices": 7,
          "material": 1,
          "mode": 4
        }
      ]
    },
    {
      "name": "Object_2",
      "primitives": [
        {
          "attributes": {
            "NORMAL": 9,
            "POSITION": 8,
            "TEXCOORD_0": 10
          },
          "indices": 11,
          "material": 1,
          "mode": 4
        }
      ]
    },
    {
      "name": "Object_3",
      "primitives": [
        {
          "attributes": {
            "NORMAL": 13,
            "POSITION": 12,
            "TEXCOORD_0": 14
          },
          "indices": 15,
          "material": 1,
          "mode": 4
        }
      ]
    }
  ],
  "nodes": [
    {
      "children": [
        1
      ],
      "matrix": [
        0.0,
        -1.0,
        -2.220446049250313e-16,
        0.0,
        0.0,
        2.220446049250313e-16,
        -1.0,
        0.0,
        1.0,
        0.0,
        0.0,
        0.0,
        0.0,
        0.0,
        0.0,
        1.0
      ],
      "name": "Sketchfab_model"
    },
    {
      "children": [
        2
      ],
      "name": "root"
    },
    {
      "children": [
        3,
        5,
        7,
        9
      ],
      "matrix": [
        1.0,
        0.0,
        0.0,
        0.0,
        0.0,
        2.220446049250313e-16,
        1.0,
        0.0,
        0.0,
        -1.0,
        2.220446049250313e-16,
        0.0,
        0.0,
        0.0,
        0.0,
        1.0
      ],
      "name": "GLTF_SceneRootNode"
    },
    {
      "children": [
        4
      ],
      "name": "Lines.001_0"
    },
    {
      "mesh": 0,
      "name": "Object_4"
    },
    {
      "children": [
        6
      ],
      "matrix": [
        0.633496463945427,
        0.35575264882151475,
        0.15921200897686524,
        0.0,
        0.38975282525792726,
        -0.5774122373746392,
        -0.2606028525880903,
        0.0,
        -0.0010475955048612948,
        0.305387024761356,
        -0.6782063464966973,
        0.0,
        0.1227281391620636,
        -0.26737692952156067,
        0.2695150375366211,
        1.0
      ],
      "name": "BezierCurve.002_1"
    },
    {
      "mesh": 1,
      "name": "Object_6"
    },
    {
      "children": [
        8
      ],
      "matrix": [
        -0.5878477380872278,
        -0.17586811159308144,
        -0.43643531922378903,
        0.0,
        -0.0019422950591559498,
        0.6993034648932223,
        -0.27917861061462307,
        0.0,
        0.47053309949107264,
        -0.21682920891735816,
        -0.5464004955983033,
        0.0,
        -0.1980026811361313,
        0.12879107892513275,
        0.6548032760620117,
        1.0
      ],
      "name": "BezierCurve.001_2"
    },
    {
      "mesh": 2,
      "name": "Object_8"
    },
    {
      "children": [
        10
      ],
      "matrix": [
        0.7346366557435994,
        0.0835122383123193,
        -0.472404534644432,
        0.0,
        -0.0991030703935685,
        0.8717853672279291,
        -1.8262357969644841e-09,
        0.0,
        0.46938141960490914,
        0.053358479010392826,
        0.7393681829170589,
        0.0,
        0.03646925091743469,
        0.31961333751678467,
        0.22497648000717163,
        1.0
      ],
      "name": "BezierCurve_3"
    },
    {
      "mesh": 3,
      "name": "Object_10"
    }
  ],
  "scene": 0,
  "scenes": [
    {
      "name": "Sketchfab_Scene",
      "nodes": [
        0
      ]
    }
  ]
}
